#!OML:ASF H:\Terrain\Patient Classification 1\Terrain2\Thursday\justin.ASF
:FULLY-SPECIFIED
:DEGREES
2425
root 12.9116 20.7711 -11.7738 -53.3089 264.254 -305.674
lowerback 9.14744 0.721521 7.88416
upperback 2.86467 1.5462 5.14925
thorax -2.06168 0.6493 0.771238
lowerneck -7.97209 -1.47691 -8.09323
upperneck 27.9056 -1.60464 0.419966
head 10.2957 -1.84098 1.30421
rclavicle -1.0138e-014 1.11319e-014
rhumerus -24.5532 -7.87858 -74.483
rradius 38.1136
rwrist -15.3834
rhand -22.1769 11.5202
rfingers 7.12502
rthumb 4.23799 -18.4174
lclavicle -1.0138e-014 1.11319e-014
lhumerus -36.4233 3.71937 86.1476
lradius 36.5836
lwrist 3.49393
lhand -16.7361 20.6305
lfingers 7.12502
lthumb 9.48996 50.3968
rfemur -5.8806 -5.63102 28.3396
rtibia 24.2304
rfoot -15.1488 8.15181
rtoes 27.1435
lfemur -22.687 3.88055 -12.3442
ltibia 66.851
lfoot -6.99991 -5.86546
ltoes 4.06878
2426
root 12.8352 20.7642 -11.7722 -53.7709 264.171 -305.166
lowerback 9.1358 0.709024 7.89779
upperback 2.82939 1.53017 5.30921
thorax -2.09656 0.636479 0.932625
lowerneck -7.92499 -1.4517 -8.52928
upperneck 27.6497 -1.51463 0.551564
head 10.1961 -1.81812 1.43606
rclavicle 1.92821e-014 3.33958e-014
rhumerus -24.3137 -7.30926 -74.3801
rradius 38.6156
rwrist -15.7023
rhand -21.9747 11.1889
rfingers 7.12502
rthumb 4.43319 -18.7447
lclavicle 1.92821e-014 3.33958e-014
lhumerus -36.366 4.2416 86.1149
lradius 36.5802
lwrist 3.08959
lhand -16.6267 20.5123
lfingers 7.12502
lthumb 9.5955 50.2738
rfemur -5.67928 -6.10067 28.3719
rtibia 24.1644
rfoot -15.1798 8.51777
rtoes 26.0581
lfemur -23.1721 3.60794 -12.2716
ltibia 66.0672
lfoot -8.1247 -6.9571
ltoes 0.705109
2427
root 12.7579 20.75 -11.7699 -53.3053 264.012 -305.613
lowerback 9.09611 0.730642 8.08379
upperback 2.85041 1.56545 5.31132
thorax -2.04487 0.654368 0.829294
lowerneck -7.9133 -1.438 -8.65203
upperneck 27.4016 -1.47486 0.614374
head 10.1029 -1.79267 1.48431
rclavicle 1.96797e-014 5.24792e-014
rhumerus -24.0364 -7.11144 -74.406
rradius 38.9479
rwrist -15.6443
rhand -21.7903 11.3952
rfingers 7.12502
rthumb 4.61122 -18.5346
lclavicle 1.96797e-014 5.24792e-014
lhumerus -36.2847 4.79564 85.847
lradius 36.5847
lwrist 2.54399
lhand -16.4592 20.1911
lfingers 7.12502
lthumb 9.75717 49.9451
rfemur -5.40912 -6.12005 28.4101
rtibia 24.1366
rfoot -15.3889 8.65052
rtoes 25.5441
lfemur -23.4357 3.59276 -12.29
ltibia 65.0487
lfoot -9.54399 -7.90385
ltoes -1.33281
2428
root 12.678 20.7402 -11.7676 -53.0552 263.775 -305.812
lowerback 9.04779 0.812013 8.44956
upperback 2.83455 1.69892 5.24424
thorax -2.01388 0.721205 0.544744
lowerneck -7.83886 -1.49315 -8.58583
upperneck 27.1873 -1.55709 0.599833
head 10.0133 -1.81469 1.45997
rclavicle -1.37161e-014 -4.29375e-014
rhumerus -23.9674 -7.17068 -74.4541
rradius 39.3908
rwrist -15.632
rhand -21.8737 11.5667
rfingers 7.12502
rthumb 4.53074 -18.3649
lclavicle -1.37161e-014 -4.29375e-014
lhumerus -36.1038 4.70089 85.6883
lradius 36.4528
lwrist 2.50589
lhand -16.3049 20.017
lfingers 7.12502
lthumb 9.90599 49.7639
rfemur -5.16161 -6.09882 28.5548
rtibia 24.2134
rfoot -15.8081 8.61702
rtoes 24.4643
lfemur -23.7061 3.40961 -12.1628
ltibia 63.957
lfoot -10.3993 -7.6302
ltoes -2.97135
2429
root 12.5997 20.7271 -11.7665 -52.6363 263.696 -306.192
lowerback 9.06083 0.909172 8.61862
upperback 2.77401 1.85175 5.17576
thorax -2.06832 0.795801 0.363992
lowerneck -7.88316 -1.57452 -8.55366
upperneck 27.1736 -1.66047 0.568479
head 10.0218 -1.86025 1.43195
rclavicle -1.90833e-014 -5.24792e-014
rhumerus -24.0154 -7.2549 -74.4227
rradius 39.9042
rwrist -15.6171
rhand -21.9197 11.3008
rfingers 7.12502
rthumb 4.48631 -18.6317
lclavicle -1.90833e-014 -5.24792e-014
lhumerus -35.9772 4.33995 85.6429
lradius 36.3264
lwrist 2.71702
lhand -16.1809 20.0041
lfingers 7.12502
lthumb 10.0256 49.7453
rfemur -5.00725 -6.13348 28.5737
rtibia 24.469
rfoot -16.3344 8.50777
rtoes 23.2505
lfemur -23.928 3.04145 -12.1418
ltibia 62.687
lfoot -10.6731 -6.79837
ltoes -2.49317
2430
root 12.5223 20.7128 -11.7659 -51.2963 263.7 -307.457
lowerback 9.02109 0.956931 8.53191
upperback 2.73696 1.90881 5.1523
thorax -2.08475 0.824569 0.381631
lowerneck -8.04044 -1.53677 -8.62933
upperneck 27.2075 -1.5718 0.570687
head 10.0617 -1.8263 1.45424
rclavicle -1.98785e-016 -1.27222e-014
rhumerus -23.9388 -7.12484 -74.4179
rradius 40.3366
rwrist -15.4627
rhand -21.8603 11.217
rfingers 7.12502
rthumb 4.54364 -18.7143
lclavicle -1.98785e-016 -1.27222e-014
lhumerus -35.8313 4.62271 85.5149
lradius 36.1631
lwrist 2.48059
lhand -16.1256 20.0902
lfingers 7.12502
lthumb 10.079 49.8288
rfemur -4.93545 -6.07283 28.4511
rtibia 24.7741
rfoot -16.8099 8.48723
rtoes 23.1344
lfemur -24.0695 2.9041 -12.2925
ltibia 61.2992
lfoot -11.2113 -6.45555
ltoes -1.94937
2431
root 12.4445 20.6837 -11.7633 -49.8965 263.635 -308.704
lowerback 8.89375 1.00534 8.3912
upperback 2.67696 1.95347 5.19864
thorax -2.08192 0.846642 0.504583
lowerneck -8.21667 -1.4849 -8.70922
upperneck 27.3847 -1.46563 0.559236
head 10.1568 -1.79402 1.47394
rclavicle -1.59028e-015 7.31528e-014
rhumerus -23.9102 -6.76373 -74.4159
rradius 40.7765
rwrist -15.5846
rhand -21.7099 11.3056
rfingers 7.12502
rthumb 4.6889 -18.6226
lclavicle -1.59028e-015 7.31528e-014
lhumerus -35.6374 5.39938 85.3856
lradius 35.8738
lwrist 1.84863
lhand -16.1388 20.3787
lfingers 7.12502
lthumb 10.0662 50.1179
rfemur -5.01971 -6.01197 28.3701
rtibia 25.2405
rfoot -17.3494 8.48879
rtoes 23.3646
lfemur -24.1941 2.7808 -12.4016
ltibia 59.6829
lfoot -11.6001 -6.48624
ltoes 1.72058
2432
root 12.3663 20.6545 -11.7634 -49.7188 263.446 -308.794
lowerback 8.87802 1.06973 8.44096
upperback 2.59028 2.05026 5.25921
thorax -2.15936 0.89012 0.530273
lowerneck -8.3319 -1.51698 -8.84151
upperneck 27.6385 -1.49309 0.590128
head 10.2768 -1.82856 1.50284
rclavicle 1.78906e-014 6.52014e-014
rhumerus -23.9803 -6.57714 -74.4186
rradius 41.2214
rwrist -15.975
rhand -21.6606 11.1737
rfingers 7.12502
rthumb 4.73653 -18.7533
lclavicle 1.78906e-014 6.52014e-014
lhumerus -35.6516 5.74724 85.3296
lradius 35.7696
lwrist 1.68489
lhand -16.194 20.5952
lfingers 7.12502
lthumb 10.013 50.337
rfemur -5.107 -5.72003 28.5154
rtibia 25.8817
rfoot -17.8768 8.34882
rtoes 23.8995
lfemur -24.1723 2.54651 -12.2207
ltibia 57.9212
lfoot -11.7947 -6.91731
ltoes 6.61508
2433
root 12.2871 20.6208 -11.7598 -49.9392 263.296 -308.539
lowerback 8.88806 1.08263 8.70451
upperback 2.51968 2.09936 5.16457
thorax -2.22216 0.912224 0.280861
lowerneck -8.37541 -1.51055 -8.736
upperneck 27.7831 -1.50722 0.597636
head 10.3373 -1.83021 1.48554
rclavicle -1.43125e-014 -5.40694e-014
rhumerus -23.9989 -6.73405 -74.6114
rradius 41.4942
rwrist -16.1876
rhand -21.7788 11.1438
rfingers 7.12502
rthumb 4.62233 -18.7858
lclavicle -1.43125e-014 -5.40694e-014
lhumerus -35.7608 4.96912 85.3355
lradius 35.9285
lwrist 2.58998
lhand -16.2139 20.6279
lfingers 7.12502
lthumb 9.99376 50.3707
rfemur -5.17738 -5.54161 28.6483
rtibia 26.5805
rfoot -18.1289 8.64812
rtoes 25.0438
lfemur -24.0107 2.22579 -12.0296
ltibia 56.0387
lfoot -11.859 -7.48039
ltoes 8.44867
2434
root 12.2028 20.5964 -11.7549 -47.4925 263.428 -310.866
lowerback 8.69323 1.12893 8.5504
upperback 2.47667 2.13567 4.94
thorax -2.15545 0.938944 0.130959
lowerneck -8.55485 -1.47916 -8.37089
upperneck 28.0496 -1.48108 0.44669
head 10.4631 -1.80864 1.37091
rclavicle -5.96354e-016 -3.97569e-014
rhumerus -23.9692 -6.94644 -74.8167
rradius 41.6841
rwrist -16.1597
rhand -21.8002 11.5009
rfingers 7.12502
rthumb 4.60165 -18.4291
lclavicle -5.96354e-016 -3.97569e-014
lhumerus -35.8956 3.65098 85.492
lradius 36.2644
lwrist 3.98755
lhand -16.3079 21.1891
lfingers 7.12502
lthumb 9.90307 50.9362
rfemur -5.27502 -5.31903 28.314
rtibia 27.1832
rfoot -18.4439 8.92036
rtoes 26.1495
lfemur -23.8268 1.67209 -12.3608
ltibia 54.1373
lfoot -11.8795 -7.65903
ltoes 8.71588
2435
root 12.1169 20.5763 -11.7461 -44.9966 263.455 -313.205
lowerback 8.42325 1.22527 8.37833
upperback 2.49898 2.21658 4.90974
thorax -1.98367 0.987328 0.192509
lowerneck -8.91337 -1.48546 -8.49347
upperneck 28.4042 -1.42909 0.424124
head 10.6665 -1.81354 1.38636
rclavicle -8.15017e-015 6.36111e-015
rhumerus -23.872 -6.86331 -74.727
rradius 41.9268
rwrist -16.083
rhand -21.6938 11.7353
rfingers 7.12502
rthumb 4.70449 -18.1925
lclavicle -8.15017e-015 6.36111e-015
lhumerus -35.901 3.39232 85.6701
lradius 36.4306
lwrist 4.49936
lhand -16.4072 21.9485
lfingers 7.12502
lthumb 9.80735 51.7001
rfemur -5.38233 -4.98661 28.0536
rtibia 27.7627
rfoot -19.1925 8.48625
rtoes 25.8175
lfemur -23.627 1.17285 -12.6046
ltibia 52.2981
lfoot -11.562 -8.45549
ltoes 11.8892
2436
root 12.0314 20.5431 -11.7346 -45.1026 263.225 -313.011
lowerback 8.2541 1.29565 8.61681
upperback 2.53474 2.29921 5.01079
thorax -1.84058 1.02975 0.164053
lowerneck -9.12535 -1.4804 -8.80186
upperneck 28.5584 -1.3688 0.540269
head 10.7693 -1.81018 1.48628
rclavicle -5.56597e-015 9.54166e-015
rhumerus -23.7869 -6.51649 -74.6255
rradius 42.1711
rwrist -16.2604
rhand -21.7504 11.4888
rfingers 7.12502
rthumb 4.64978 -18.4402
lclavicle -5.56597e-015 9.54166e-015
lhumerus -35.7489 4.15572 85.5968
lradius 36.2342
lwrist 4.07324
lhand -16.4818 21.9925
lfingers 7.12502
lthumb 9.73533 51.7475
rfemur -5.43718 -4.98071 28.1931
rtibia 28.352
rfoot -19.9312 8.17892
rtoes 24.4377
lfemur -23.3584 0.940379 -12.3904
ltibia 50.5568
lfoot -10.7857 -10.0492
ltoes 18.2146
2437
root 11.9454 20.5184 -11.7279 -43.988 263.128 -314.069
lowerback 8.12354 1.31879 8.62964
upperback 2.50875 2.31804 5.00254
thorax -1.79323 1.04083 0.149674
lowerneck -9.04242 -1.38491 -8.94997
upperneck 28.5443 -1.23012 0.596829
head 10.7424 -1.75736 1.54872
rclavicle -1.45113e-014 -3.18055e-015
rhumerus -23.7504 -6.19528 -74.6821
rradius 42.3117
rwrist -16.5345
rhand -21.9315 11.5865
rfingers 7.12502
rthumb 4.4749 -18.3462
lclavicle -1.45113e-014 -3.18055e-015
lhumerus -35.7463 5.15531 85.2965
lradius 35.9962
lwrist 3.47324
lhand -16.6427 21.4119
lfingers 7.12502
lthumb 9.58006 51.1741
rfemur -5.41186 -4.88911 28.1308
rtibia 28.8715
rfoot -20.4376 8.08934
rtoes 23.306
lfemur -23.0041 0.697656 -12.3917
ltibia 48.9083
lfoot -9.74879 -11.5123
ltoes 25.4551
2438
root 11.8545 20.5022 -11.7195 -40.4872 263.294 -317.601
lowerback 8.00914 1.33893 8.30334
upperback 2.51231 2.3125 4.85378
thorax -1.73528 1.04546 0.177151
lowerneck -9.02802 -1.30899 -9.00099
upperneck 28.6583 -1.09423 0.496076
head 10.7767 -1.72026 1.53654
rclavicle 6.36111e-015 2.54444e-014
rhumerus -23.6779 -6.14368 -74.7481
rradius 42.2933
rwrist -16.5159
rhand -21.8365 11.8709
rfingers 7.12502
rthumb 4.56669 -18.0598
lclavicle 6.36111e-015 2.54444e-014
lhumerus -35.7159 5.77176 85.0895
lradius 35.7682
lwrist 3.09759
lhand -16.7999 21.0128
lfingers 7.12502
lthumb 9.42843 50.7819
rfemur -5.24987 -5.03209 27.5625
rtibia 29.3049
rfoot -20.9119 8.17174
rtoes 22.3017
lfemur -22.4994 0.198506 -12.8993
ltibia 47.385
lfoot -8.43304 -12.7843
ltoes 32.9892
2439
root 11.7596 20.4743 -11.7121 -38.8834 263.303 -319.351
lowerback 7.96135 1.40958 8.13676
upperback 2.55429 2.38606 4.80014
thorax -1.66623 1.08659 0.208325
lowerneck -9.0504 -1.33037 -8.7873
upperneck 28.879 -1.0886 0.169552
head 10.8628 -1.74546 1.38136
rclavicle 5.96354e-016 -5.56597e-014
rhumerus -23.6759 -6.41 -74.7365
rradius 42.2643
rwrist -16.1307
rhand -21.7154 11.8107
rfingers 7.12502
rthumb 4.68362 -18.1175
lclavicle 5.96354e-016 -5.56597e-014
lhumerus -35.681 6.05534 85.0198
lradius 35.6134
lwrist 2.75618
lhand -16.7814 21.3164
lfingers 7.12502
lthumb 9.44625 51.0847
rfemur -4.99091 -5.14788 27.271
rtibia 29.736
rfoot -21.3762 8.28408
rtoes 22.1223
lfemur -21.852 -0.490881 -13.1125
ltibia 46.0137
lfoot -6.70985 -13.8591
ltoes 40.6013
